<svg width="187" height="187" viewBox="0 0 187 187" fill="none" xmlns="http://www.w3.org/2000/svg">
<circle cx="93.5" cy="93.5" r="91" stroke="white" stroke-width="5"/>
<circle cx="93.5" cy="93.5" r="91" stroke="white" stroke-width="5"/>
<circle cx="93.5" cy="93.5" r="91" stroke="white" stroke-width="5"/>
<circle cx="93.5" cy="93.5" r="75" stroke="white" stroke-width="5"/>
<circle cx="93.5" cy="93.5" r="75" stroke="white" stroke-width="5"/>
<circle cx="93.5" cy="93.5" r="75" stroke="white" stroke-width="5"/>
<circle cx="15.5" cy="15.5" r="13" transform="matrix(-1 0 0 1 110 89)" stroke="white" stroke-width="5"/>
<circle cx="15.5" cy="15.5" r="13" transform="matrix(-1 0 0 1 110 89)" stroke="white" stroke-width="5"/>
<circle cx="15.5" cy="15.5" r="13" transform="matrix(-1 0 0 1 110 89)" stroke="white" stroke-width="5"/>
<path d="M18 96C42.3989 80.1529 106.757 57.967 169 96" stroke="white" stroke-width="6"/>
<path d="M18 96C42.3989 80.1529 106.757 57.967 169 96" stroke="white" stroke-width="6"/>
<path d="M18 96C42.3989 80.1529 106.757 57.967 169 96" stroke="white" stroke-width="6"/>
<path d="M106.672 165.904C105.768 145.802 116.153 107.666 164.927 115.94" stroke="white" stroke-width="6"/>
<path d="M106.672 165.904C105.768 145.802 116.153 107.666 164.927 115.94" stroke="white" stroke-width="6"/>
<path d="M106.672 165.904C105.768 145.802 116.153 107.666 164.927 115.94" stroke="white" stroke-width="6"/>
<path d="M21 116.027C40.7043 111.946 80.0047 116.152 79.5714 165.62" stroke="white" stroke-width="6"/>
<path d="M21 116.027C40.7043 111.946 80.0047 116.152 79.5714 165.62" stroke="white" stroke-width="6"/>
<path d="M21 116.027C40.7043 111.946 80.0047 116.152 79.5714 165.62" stroke="white" stroke-width="6"/>
</svg>
